<svg width="14" height="12" viewBox="0 0 14 12" fill="none" xmlns="http://www.w3.org/2000/svg">
  <mask id="path-1-inside-1" fill="white">
    <path fill-rule="evenodd" clip-rule="evenodd" d="M2.1001 0C0.995528 0 0.100098 0.895431 0.100098 2V3V10C0.100098 11.1046 0.99553 12 2.1001 12H11.4001C12.5047 12 13.4001 11.1046 13.4001 10V4C13.4001 2.89543 12.5047 2 11.4001 2H6.19593L5.65871 1.03057C5.30627 0.394602 4.63646 0 3.90936 0H2.1001Z"/>
  </mask>
  <path fill-rule="evenodd" clip-rule="evenodd" d="M2.1001 0C0.995528 0 0.100098 0.895431 0.100098 2V3V10C0.100098 11.1046 0.99553 12 2.1001 12H11.4001C12.5047 12 13.4001 11.1046 13.4001 10V4C13.4001 2.89543 12.5047 2 11.4001 2H6.19593L5.65871 1.03057C5.30627 0.394602 4.63646 0 3.90936 0H2.1001Z" fill="white"/>
  <path d="M6.19593 2L5.32126 2.48471L5.60681 3H6.19593V2ZM5.65871 1.03057L6.53338 0.545857V0.545857L5.65871 1.03057ZM1.1001 2C1.1001 1.44772 1.54781 1 2.1001 1V-1C0.443244 -1 -0.899902 0.343146 -0.899902 2H1.1001ZM1.1001 3V2H-0.899902V3H1.1001ZM1.1001 10V3H-0.899902V10H1.1001ZM2.1001 11C1.54781 11 1.1001 10.5523 1.1001 10H-0.899902C-0.899902 11.6569 0.443247 13 2.1001 13V11ZM11.4001 11H2.1001V13H11.4001V11ZM12.4001 10C12.4001 10.5523 11.9524 11 11.4001 11V13C13.057 13 14.4001 11.6569 14.4001 10H12.4001ZM12.4001 4V10H14.4001V4H12.4001ZM11.4001 3C11.9524 3 12.4001 3.44772 12.4001 4H14.4001C14.4001 2.34314 13.0569 1 11.4001 1V3ZM6.19593 3H11.4001V1H6.19593V3ZM4.78403 1.51529L5.32126 2.48471L7.0706 1.51529L6.53338 0.545857L4.78403 1.51529ZM3.90936 1C4.27291 1 4.60782 1.1973 4.78403 1.51529L6.53338 0.545857C6.00473 -0.408097 5 -1 3.90936 -1V1ZM2.1001 1H3.90936V-1H2.1001V1Z" fill="#00A0DF" fill-opacity="0.6" mask="url(#path-1-inside-1)"/>
  <path fill-rule="evenodd" clip-rule="evenodd" d="M9.125 5C8.86266 5 8.65 5.21267 8.65 5.475V7H7.25C6.97386 7 6.75 7.22386 6.75 7.5C6.75 7.77614 6.97386 8 7.25 8H8.65V9.525C8.65 9.78734 8.86266 10 9.125 10C9.38734 10 9.6 9.78733 9.6 9.525V8H11C11.2761 8 11.5 7.77614 11.5 7.5C11.5 7.22386 11.2761 7 11 7H9.6V5.475C9.6 5.21266 9.38734 5 9.125 5Z" fill="#00A0DF" fill-opacity="0.6"/>
</svg>
