<svg width="14" height="16" viewBox="0 0 14 16" fill="none" xmlns="http://www.w3.org/2000/svg">
  <rect width="14" height="16" rx="2" fill="none" stroke="#00A0DF" fill-opacity="0.6"/>
  <rect x="0.5" y="0.5" width="13" height="15" rx="1.5" stroke="#00A0DF" stroke-opacity="0.6"/>
  <path fill-rule="evenodd" clip-rule="evenodd" d="M3.5 4C3.22386 4 3 4.22386 3 4.5C3 4.77614 3.22386 5 3.5 5H10.5C10.7761 5 11 4.77614 11 4.5C11 4.22386 10.7761 4 10.5 4H3.5ZM3.5 6C3.22386 6 3 6.22386 3 6.5C3 6.77614 3.22386 7 3.5 7H10.5C10.7761 7 11 6.77614 11 6.5C11 6.22386 10.7761 6 10.5 6H3.5ZM3 8.5C3 8.22386 3.22386 8 3.5 8H10.5C10.7761 8 11 8.22386 11 8.5C11 8.77614 10.7761 9 10.5 9H3.5C3.22386 9 3 8.77614 3 8.5ZM3.5 10C3.22386 10 3 10.2239 3 10.5C3 10.7761 3.22386 11 3.5 11H6.5C6.77614 11 7 10.7761 7 10.5C7 10.2239 6.77614 10 6.5 10H3.5Z" fill="#00A0DF" fill-opacity="0.6"/>
</svg>
