<svg width="16" height="11" viewBox="0 0 16 11" fill="none" xmlns="http://www.w3.org/2000/svg">
  <path d="M6.5 2.00003C4.49997 1.00003 2.00001 3.00001 2.50001 5.00001C-0.967249 5.909 -0.569554 10.091 2.64096 10.9999H13.3658C13.4917 10.9999 13.6178 10.9771 13.7328 10.9257C16.5342 9.67459 17.0768 5.90411 13.428 4.37739C13.5564 6.10352e-05 9 -1.49994 6.5 2.00003Z" fill="white"/>
  <path d="M6.2764 2.44724L6.65854 2.63831L6.90687 2.29065C8.04722 0.69417 9.59126 0.303829 10.7897 0.708452C11.9868 1.1126 12.987 2.36034 12.9283 4.36273L12.9182 4.70606L13.235 4.83864C14.9026 5.53639 15.5236 6.69285 15.4994 7.74338C15.4745 8.82129 14.7713 9.91434 13.5289 10.4692C13.4874 10.4877 13.4325 10.4999 13.3658 10.4999H2.71259C1.34754 10.0868 0.620399 9.00901 0.565622 7.97357C0.511373 6.94809 1.11238 5.8807 2.62681 5.48367L3.10498 5.35831L2.98508 4.87875C2.79646 4.12426 3.16468 3.31185 3.86735 2.77133C4.56487 2.23478 5.48576 2.05193 6.2764 2.44724Z" stroke="#00A0DF" stroke-opacity="0.6"/>
</svg>
