<svg width="10" height="14" viewBox="0 0 10 14" fill="none" xmlns="http://www.w3.org/2000/svg">
  <path d="M0.16306 5.14142C0.0769982 4.53899 0.54446 4 1.15301 4H8.84699C9.45554 4 9.923 4.53899 9.83694 5.14142L8.69408 13.1414C8.6237 13.6341 8.20178 14 7.70413 14H2.29587C1.79822 14 1.3763 13.6341 1.30592 13.1414L0.16306 5.14142Z" fill="white"/>
  <path d="M0.658035 5.07071C0.615004 4.76949 0.848734 4.5 1.15301 4.5H8.84699C9.15126 4.5 9.385 4.76949 9.34196 5.07071L8.19911 13.0707C8.16392 13.317 7.95296 13.5 7.70413 13.5H2.29587C2.04704 13.5 1.83608 13.317 1.80089 13.0707L0.658035 5.07071Z" stroke="#00A0DF" stroke-opacity="0.6"/>
  <path fill-rule="evenodd" clip-rule="evenodd" d="M4 1H6V2H4V1ZM3 2V1C3 0.447715 3.44772 0 4 0H6C6.55228 0 7 0.447715 7 1V2H9.5C9.77614 2 10 2.22386 10 2.5C10 2.77614 9.77614 3 9.5 3H7H6H4H3H0.5C0.223858 3 0 2.77614 0 2.5C0 2.22386 0.223858 2 0.5 2H3Z" fill="#00A0DF" fill-opacity="0.6"/>
</svg>
