<svg width="14" height="16" viewBox="0 0 14 16" fill="none" xmlns="http://www.w3.org/2000/svg">
  <rect width="14" height="12" rx="2" fill="white"/>
  <rect x="0.5" y="0.5" width="13" height="11" rx="1.5" stroke="#00A0DF" stroke-opacity="0.6"/>
  <path fill-rule="evenodd" clip-rule="evenodd" d="M3 3.5C3 3.22386 3.22386 3 3.5 3H10.5C10.7761 3 11 3.22386 11 3.5C11 3.77614 10.7761 4 10.5 4H3.5C3.22386 4 3 3.77614 3 3.5ZM3 5.5C3 5.22386 3.22386 5 3.5 5H10.5C10.7761 5 11 5.22386 11 5.5C11 5.77614 10.7761 6 10.5 6H3.5C3.22386 6 3 5.77614 3 5.5ZM3.5 7C3.22386 7 3 7.22386 3 7.5C3 7.77614 3.22386 8 3.5 8H6.5C6.77614 8 7 7.77614 7 7.5C7 7.22386 6.77614 7 6.5 7H3.5Z" fill="#00A0DF" fill-opacity="0.6"/>
  <path fill-rule="evenodd" clip-rule="evenodd" d="M6 13C5.44772 13 5 13.4477 5 14L2.5 14C2.22386 14 2 14.2239 2 14.5C2 14.7761 2.22386 15 2.5 15H5C5 15.5523 5.44772 16 6 16H8C8.55228 16 9 15.5523 9 15H11.5C11.7761 15 12 14.7761 12 14.5C12 14.2239 11.7761 14 11.5 14H9C9 13.4477 8.55228 13 8 13H6Z" fill="#00A0DF" fill-opacity="0.6"/>
</svg>
