<svg width="14" height="14" viewBox="0 0 14 14" fill="none" xmlns="http://www.w3.org/2000/svg">
  <path d="M0 2C0 0.89543 0.895431 0 2 0H12C13.1046 0 14 0.895431 14 2V12C14 13.1046 13.1046 14 12 14H2C0.89543 14 0 13.1046 0 12V2Z" fill="white"/>
  <path d="M0.5 2C0.5 1.17157 1.17157 0.5 2 0.5H12C12.8284 0.5 13.5 1.17157 13.5 2V12C13.5 12.8284 12.8284 13.5 12 13.5H2C1.17157 13.5 0.5 12.8284 0.5 12V2Z" stroke="#00A0DF" stroke-opacity="0.6"/>
  <path d="M1 2C1 1.44772 1.44772 1 2 1H12C12.5523 1 13 1.44772 13 2V4H1V2Z" fill="#00A0DF" fill-opacity="0.1"/>
  <path d="M1 7H13V8H1V7Z" fill="#00A0DF" fill-opacity="0.6"/>
  <path d="M1 4H13V5H1V4Z" fill="#00A0DF" fill-opacity="0.6"/>
  <path d="M1 10H13V11H1V10Z" fill="#00A0DF" fill-opacity="0.6"/>
</svg>
