<svg width="14" height="12" viewBox="0 0 14 12" fill="none" xmlns="http://www.w3.org/2000/svg">
  <mask id="path-1-inside-1" fill="white">
    <path fill-rule="evenodd" clip-rule="evenodd" d="M2 0C0.895431 0 0 0.895431 0 2V3V10C0 11.1046 0.89543 12 2 12H12C13.1046 12 14 11.1046 14 10V4C14 2.89543 13.1046 2 12 2H6.41667L5.82882 0.992258C5.4704 0.377823 4.81259 0 4.10126 0H2Z"/>
  </mask>
  <path fill-rule="evenodd" clip-rule="evenodd" d="M2 0C0.895431 0 0 0.895431 0 2V3V10C0 11.1046 0.89543 12 2 12H12C13.1046 12 14 11.1046 14 10V4C14 2.89543 13.1046 2 12 2H6.41667L5.82882 0.992258C5.4704 0.377823 4.81259 0 4.10126 0H2Z" fill="white"/>
  <path d="M6.41667 2L5.55289 2.50387L5.8423 3H6.41667V2ZM5.82882 0.992258L6.6926 0.488387L6.6926 0.488387L5.82882 0.992258ZM1 2C1 1.44772 1.44772 1 2 1V-1C0.343146 -1 -1 0.343146 -1 2H1ZM1 3V2H-1V3H1ZM1 10V3H-1V10H1ZM2 11C1.44772 11 1 10.5523 1 10H-1C-1 11.6569 0.343146 13 2 13V11ZM12 11H2V13H12V11ZM13 10C13 10.5523 12.5523 11 12 11V13C13.6569 13 15 11.6569 15 10H13ZM13 4V10H15V4H13ZM12 3C12.5523 3 13 3.44772 13 4H15C15 2.34315 13.6569 1 12 1V3ZM6.41667 3H12V1H6.41667V3ZM4.96504 1.49613L5.55289 2.50387L7.28045 1.49613L6.6926 0.488387L4.96504 1.49613ZM4.10126 1C4.45693 1 4.78583 1.18891 4.96504 1.49613L6.6926 0.488387C6.15497 -0.433266 5.16826 -1 4.10126 -1V1ZM2 1H4.10126V-1H2V1Z" fill="#00A0DF" fill-opacity="0.6" mask="url(#path-1-inside-1)"/>
</svg>
